<?xml version="1.0" standalone="no"?>
<!DOCTYPE svg PUBLIC "-//W3C//DTD SVG 20010904//EN"
 "http://www.w3.org/TR/2001/REC-SVG-20010904/DTD/svg10.dtd">
<svg version="1.0" xmlns="http://www.w3.org/2000/svg"
 width="820.000000pt" height="563.000000pt" viewBox="0 0 820.000000 563.000000"
 preserveAspectRatio="xMidYMid meet">

<g transform="translate(0.000000,563.000000) scale(0.100000,-0.100000)"
fill="#000000" stroke="none">
<path d="M4485 3614 c-38 -24 -81 -49 -95 -54 -25 -10 -55 -53 -112 -159 -48
-88 -26 -67 30 29 48 82 58 93 123 131 38 23 72 40 74 37 2 -2 -24 -76 -59
-165 -92 -230 -147 -388 -194 -548 -37 -130 -50 -180 -86 -340 l-13 -60 -6
105 c-3 58 -11 240 -17 405 -10 274 -34 612 -45 643 -2 6 -9 12 -14 12 -7 0
-7 -9 0 -27 6 -16 15 -91 20 -168 10 -164 12 -1015 2 -1041 -4 -11 -18 63 -34
171 -72 501 -159 979 -175 962 -3 -3 -1 -22 5 -43 15 -55 83 -531 79 -551 -2
-9 -18 50 -36 133 -19 82 -40 163 -48 179 -7 17 -12 21 -9 10 29 -127 63 -339
105 -670 35 -268 36 -282 13 -240 -9 17 -19 32 -22 35 -4 3 -34 39 -66 80
-127 162 -314 347 -448 444 -23 17 -44 33 -47 36 -22 24 -324 232 -352 243
-19 7 0 21 55 41 l47 18 88 -69 c222 -173 408 -351 536 -513 75 -94 81 -101
66 -70 -28 54 -204 261 -311 366 -101 97 -360 314 -376 314 -8 0 -197 -61
-201 -64 -1 -2 46 -35 105 -73 245 -158 505 -377 668 -563 124 -141 138 -175
29 -68 -114 111 -140 134 -249 217 -165 124 -357 229 -528 286 -56 19 -101 38
-99 42 2 4 17 16 35 25 18 9 29 17 25 18 -12 0 -98 -44 -98 -51 0 -3 29 -14
64 -23 124 -34 419 -193 496 -268 14 -13 63 -54 111 -90 101 -78 381 -368 355
-368 -4 0 -41 20 -84 45 -167 97 -334 152 -550 181 -283 37 -584 83 -590 89
-4 3 16 28 43 53 261 245 258 243 290 237 16 -4 95 -28 175 -55 79 -27 145
-48 147 -46 8 8 -235 97 -314 114 -41 9 -44 8 -90 -31 -27 -23 -50 -44 -53
-47 -3 -3 -52 -46 -110 -95 -58 -50 -118 -102 -134 -116 l-29 -27 34 -10 c55
-18 221 -48 439 -81 219 -33 355 -60 347 -68 -3 -2 -68 5 -144 16 -172 26
-595 60 -582 47 3 -3 93 -15 200 -26 189 -19 439 -59 488 -78 51 -19 -572 -34
-704 -17 -77 10 -48 -3 36 -16 41 -6 218 -12 394 -14 176 -1 332 -6 347 -11
20 -6 -13 -10 -110 -11 -84 -1 -181 -10 -252 -22 -63 -11 -178 -31 -255 -45
-77 -14 -180 -29 -230 -34 -84 -9 -86 -9 -30 -11 67 -1 248 20 430 50 66 11
181 21 255 24 l135 4 -115 -13 c-63 -8 -209 -32 -325 -55 -115 -22 -232 -45
-260 -50 -104 -19 -3 -10 160 14 94 14 220 32 280 41 173 25 433 8 535 -35 24
-11 24 -11 -5 -6 -112 19 -188 25 -315 25 -202 0 -291 -13 -680 -99 l-45 -10
55 5 c30 3 102 14 160 24 150 27 248 38 390 45 138 6 138 -8 0 -19 -47 -3
-116 -13 -155 -21 -141 -30 -417 -99 -408 -102 6 -2 100 14 209 36 328 66 509
73 726 30 126 -25 221 -59 336 -121 l93 -49 74 16 c42 10 87 14 104 10 36 -8
42 -4 173 120 199 188 383 324 568 419 165 85 297 123 474 136 l101 7 -107 2
c-213 2 -450 -75 -694 -228 -53 -34 -98 -61 -101 -61 -12 0 66 63 157 128 178
128 317 197 488 244 65 19 105 22 255 22 121 1 173 4 164 11 -24 17 -321 10
-412 -9 -220 -48 -457 -169 -677 -347 -54 -43 -98 -75 -98 -70 0 19 251 250
338 311 225 158 506 260 720 260 28 0 52 3 52 8 0 7 -27 26 -95 67 l-30 18 30
-26 c17 -15 33 -26 38 -27 4 0 7 -4 7 -9 0 -6 -21 -12 -47 -15 -230 -28 -368
-67 -535 -151 -209 -105 -372 -236 -586 -470 -69 -76 -72 -72 -13 20 217 336
558 636 933 820 61 31 113 57 115 59 2 2 -7 6 -21 8 -14 3 -23 1 -20 -3 2 -4
-62 -42 -143 -83 -243 -123 -433 -252 -593 -402 -44 -42 -80 -73 -80 -69 0 15
96 122 208 232 133 132 254 226 405 316 121 73 121 73 -13 81 -74 5 -79 4 -35
-4 107 -21 107 -15 -11 -87 -164 -99 -285 -194 -432 -337 -135 -132 -242 -256
-328 -381 -26 -38 -49 -72 -51 -74 -2 -2 -5 -2 -8 1 -6 6 32 92 102 233 109
218 220 385 497 750 26 33 46 64 46 69 0 14 -14 -1 -141 -164 -196 -249 -307
-406 -409 -578 -24 -39 -46 -70 -48 -67 -8 8 161 344 240 480 39 66 113 185
165 264 52 79 92 145 91 147 -5 5 -189 -43 -196 -51 -4 -4 2 -5 13 -2 11 3 41
10 66 17 26 7 53 10 62 8 10 -2 -19 -54 -105 -183 -188 -284 -328 -529 -404
-707 -16 -38 -31 -68 -35 -68 -7 0 37 205 80 365 42 157 126 406 200 588 32
81 56 147 52 147 -3 -1 -37 -21 -76 -46z"/>
<path d="M3846 3641 c-4 -7 -5 -15 -2 -18 9 -9 19 4 14 18 -4 11 -6 11 -12 0z"/>
<path d="M3860 2576 c0 -2 8 -10 18 -17 15 -13 16 -12 3 4 -13 16 -21 21 -21
13z"/>
<path d="M2638 2513 c7 -3 16 -2 19 1 4 3 -2 6 -13 5 -11 0 -14 -3 -6 -6z"/>
<path d="M5700 2340 c46 -52 105 -119 133 -148 49 -51 57 -74 20 -53 -57 33
-299 136 -372 159 -80 24 -99 26 -266 26 -171 0 -186 -2 -299 -32 -141 -38
-215 -67 -361 -139 -128 -64 -239 -136 -269 -176 -18 -24 -19 -31 -8 -59 11
-30 10 -34 -20 -65 -47 -49 -104 -67 -186 -60 -98 9 -229 67 -151 67 31 0 11
27 -37 51 -86 41 -247 62 -489 63 -272 1 -398 -15 -695 -89 -202 -50 -450 -92
-450 -76 0 3 15 21 33 40 l32 35 -41 -32 c-22 -17 -47 -38 -54 -47 -7 -8 -28
-15 -49 -15 l-36 1 103 97 c56 53 102 101 102 105 0 8 -77 -54 -145 -116 -11
-10 -48 -42 -82 -70 -35 -28 -61 -53 -58 -55 3 -3 410 -5 905 -4 l901 1 67
-26 c145 -54 288 -39 378 40 l46 41 252 -17 c711 -48 1507 -92 1542 -85 13 2
1 17 -47 57 -56 48 -59 49 -25 13 22 -23 37 -44 35 -47 -3 -2 -97 6 -210 20
-309 37 -795 88 -1243 130 -149 14 -271 27 -273 29 -8 8 201 108 285 136 137
46 242 63 382 64 162 0 276 -24 426 -94 77 -35 280 -110 296 -109 7 0 -9 9
-37 18 -27 10 -102 42 -165 71 -240 110 -359 149 -462 151 -27 0 -29 2 -13 8
22 9 69 6 200 -14 119 -19 238 -54 406 -120 174 -69 200 -71 49 -4 -139 62
-338 132 -440 154 -115 25 -385 31 -491 11 -100 -19 -102 -19 -95 -7 10 15
245 89 341 106 68 13 122 16 220 12 149 -6 201 -18 352 -83 146 -62 291 -116
303 -112 5 2 -65 80 -156 173 -121 124 -144 144 -84 75z m-2165 -424 c124 -15
280 -44 303 -55 7 -4 -159 -13 -370 -20 -211 -6 -482 -16 -603 -21 -474 -20
-465 -20 -405 -9 30 6 144 28 253 50 332 67 579 83 822 55z"/>
<path d="M2476 2251 c-4 -7 -5 -15 -2 -18 9 -9 19 4 14 18 -4 11 -6 11 -12 0z"/>
<path d="M5870 1971 c0 -5 5 -13 10 -16 6 -3 10 -2 10 4 0 5 -4 13 -10 16 -5
3 -10 2 -10 -4z"/>
<path d="M4035 1934 c-36 -13 -89 -53 -82 -61 2 -2 24 5 48 16 81 35 155 37
234 5 17 -7 18 -6 7 8 -17 21 -96 48 -136 47 -17 0 -49 -7 -71 -15z"/>
</g>
</svg>
