<?xml version="1.0" standalone="no"?>
<!DOCTYPE svg PUBLIC "-//W3C//DTD SVG 20010904//EN"
 "http://www.w3.org/TR/2001/REC-SVG-20010904/DTD/svg10.dtd">
<svg version="1.0" xmlns="http://www.w3.org/2000/svg"
 width="640.000000pt" height="320.000000pt" viewBox="0 0 640.000000 320.000000"
 preserveAspectRatio="xMidYMid meet">

<g transform="translate(0.000000,320.000000) scale(0.100000,-0.100000)"
fill="#000000" stroke="none">
<path d="M1815 1730 c-265 -7 -271 -8 -412 -66 -81 -34 -133 -43 -133 -24 0 5
11 12 24 16 29 7 40 28 22 43 -20 17 -57 -1 -94 -44 -35 -39 -52 -40 -104 -4
-33 24 -37 24 -66 -3 l-24 -23 -486 0 c-487 0 -542 -4 -542 -35 0 -7 168 -10
509 -10 l509 0 30 -25 29 -24 34 23 c19 13 48 26 64 30 26 6 34 2 53 -23 46
-63 141 -62 300 5 113 46 155 59 176 51 13 -5 15 -11 6 -26 -26 -50 2 -111 50
-111 18 0 34 8 44 22 20 28 20 51 1 88 -14 27 -14 30 11 49 50 39 96 46 160
25 66 -22 79 -39 35 -49 -71 -15 -105 -80 -63 -118 35 -32 112 -17 112 21 0
11 -9 12 -40 7 -36 -6 -40 -5 -40 13 0 25 24 50 54 58 15 3 75 -12 157 -39
220 -74 291 -90 394 -85 108 5 167 31 285 127 120 97 185 119 269 90 33 -12
43 -39 14 -39 -10 0 -43 -28 -74 -61 -61 -65 -86 -72 -81 -22 5 56 -59 73 -87
22 -12 -22 -13 -31 -1 -59 25 -59 105 -74 184 -33 27 14 34 14 79 -2 46 -17
50 -17 87 0 36 16 42 16 80 1 22 -9 61 -16 86 -16 37 0 51 5 75 29 48 49 30
116 -30 109 -22 -3 -26 -8 -29 -40 -4 -49 -26 -50 -72 -3 -19 19 -51 47 -72
61 -47 33 -48 49 -4 64 62 20 126 -9 295 -133 110 -80 199 -111 300 -102 103
9 214 36 350 84 128 46 175 51 191 22 16 -31 2 -51 -36 -51 -40 0 -47 -25 -10
-34 45 -11 96 21 96 61 0 32 -44 71 -83 75 l-32 3 34 22 c73 46 180 48 224 4
20 -20 20 -20 -7 -52 -21 -24 -26 -38 -21 -58 10 -38 24 -51 55 -51 39 0 60
28 60 83 0 47 0 47 28 41 15 -4 52 -19 82 -34 153 -77 291 -79 367 -8 l23 22
51 -27 51 -26 47 25 46 25 495 -2 c487 -1 495 -1 498 19 3 20 -3 20 -475 19
-330 -1 -492 3 -523 11 -99 25 -98 25 -126 3 -38 -30 -65 -26 -97 14 -27 34
-32 36 -80 33 -32 -2 -52 -8 -55 -17 -3 -10 3 -12 29 -9 42 6 79 -9 79 -34 0
-26 -33 -23 -142 11 -213 68 -358 91 -563 91 -172 0 -268 -17 -374 -66 -41
-19 -77 -34 -81 -34 -4 0 -11 16 -14 35 -7 38 -38 65 -74 65 -23 0 -72 -40
-72 -60 0 -22 30 -22 48 1 23 27 49 20 58 -16 14 -55 -69 -115 -160 -115 -39
0 -53 5 -77 29 -39 39 -37 51 10 51 63 0 78 42 31 85 -48 43 -130 2 -130 -66
0 -17 -5 -29 -13 -29 -7 0 -43 22 -81 50 -66 48 -143 80 -193 80 -13 0 -41 -9
-63 -20 -49 -25 -54 -25 -108 1 -78 38 -156 17 -279 -75 -33 -25 -64 -46 -67
-46 -3 0 -6 11 -6 25 0 68 -63 119 -116 93 -42 -20 -52 -43 -33 -76 11 -21 23
-27 47 -27 38 0 40 -8 7 -40 -18 -19 -35 -25 -70 -25 -105 0 -201 80 -153 128
23 23 48 13 64 -23 17 -41 34 -38 34 6 0 43 -33 71 -78 67 -32 -3 -40 -9 -57
-43 -11 -22 -21 -42 -22 -44 -1 -2 -34 13 -73 33 -77 40 -180 67 -245 64 -22
-1 -152 -5 -290 -8z m5 -40 c0 -6 -14 -19 -32 -30 -26 -15 -43 -18 -93 -13
-66 6 -85 2 -227 -53 -88 -34 -159 -43 -188 -24 -13 9 -13 11 0 20 8 5 21 10
28 10 7 0 61 16 120 35 59 19 134 41 167 49 70 17 225 21 225 6z m395 -5 c33
-8 124 -47 203 -87 127 -65 149 -73 197 -72 30 0 55 -3 55 -7 0 -12 -105 -22
-152 -14 -56 9 -193 60 -338 124 -63 28 -123 51 -132 51 -10 0 -18 5 -18 10 0
15 118 12 185 -5z m2153 5 c-5 -16 -308 -147 -392 -170 -72 -20 -118 -25 -129
-13 -10 9 299 161 363 177 66 17 163 21 158 6z m387 -5 c28 -4 104 -24 170
-45 66 -21 139 -41 162 -45 53 -8 63 -22 26 -36 -39 -15 -94 -6 -202 36 -51
19 -125 40 -165 47 -75 12 -96 21 -96 45 0 10 8 13 28 9 15 -2 50 -8 77 -11z
m-3651 -71 c20 -7 21 -20 3 -27 -19 -7 -41 8 -33 22 8 13 9 13 30 5z m4226 -9
c0 -8 -9 -15 -20 -15 -20 0 -26 11 -13 23 12 13 33 7 33 -8z m-660 -35 c0 -23
-4 -30 -20 -30 -23 0 -27 29 -8 48 19 19 28 14 28 -18z m-2893 -24 c-9 -26
-27 -15 -27 16 1 31 1 32 15 13 9 -10 14 -24 12 -29z"/>
</g>
</svg>
