<?xml version="1.0" standalone="no"?>
<!DOCTYPE svg PUBLIC "-//W3C//DTD SVG 20010904//EN"
 "http://www.w3.org/TR/2001/REC-SVG-20010904/DTD/svg10.dtd">
<svg version="1.0" xmlns="http://www.w3.org/2000/svg"
 width="900.000000pt" height="760.000000pt" viewBox="0 0 900.000000 760.000000"
 preserveAspectRatio="xMidYMid meet">

<g transform="translate(0.000000,760.000000) scale(0.100000,-0.100000)"
fill="#000000" stroke="none">
<path d="M4473 7585 c-46 -33 -49 -109 -9 -223 9 -24 21 -74 28 -110 l12 -67
8 40 c5 22 20 86 35 143 30 120 28 186 -7 214 -27 22 -39 22 -67 3z"/>
<path d="M2166 7430 c-43 -51 -32 -77 31 -78 33 -1 43 3 48 18 7 22 -4 47 -33
73 -19 17 -20 17 -46 -13z"/>
<path d="M6746 7431 c-18 -19 -26 -37 -24 -52 2 -20 10 -24 45 -27 33 -2 44 1
52 16 9 16 5 27 -18 55 l-28 36 -27 -28z"/>
<path d="M4261 7434 c-26 -19 -28 -65 -3 -86 9 -9 39 -25 65 -37 27 -11 62
-35 78 -52 l29 -31 0 26 c0 15 -10 46 -21 69 -51 100 -106 140 -148 111z"/>
<path d="M4695 7440 c-51 -19 -125 -132 -125 -190 l0 -25 26 28 c14 15 52 41
84 57 71 36 95 66 81 102 -11 28 -37 39 -66 28z"/>
<path d="M1720 7391 c0 -41 74 -67 100 -35 11 13 10 16 -8 21 -12 3 -22 12
-22 19 0 19 -9 18 -32 -3 -18 -16 -18 -16 -12 0 4 12 1 17 -10 17 -9 0 -16 -8
-16 -19z"/>
<path d="M1975 7395 c-82 -17 -86 -19 -140 -82 -56 -65 -98 -93 -140 -93 l-30
0 32 31 31 31 -22 49 c-33 77 -50 61 -21 -21 16 -46 11 -61 -27 -81 -14 -7
-27 -6 -50 5 -37 19 -38 19 -38 6 0 -5 14 -17 32 -26 43 -22 125 -15 166 15
37 26 46 23 72 -28 22 -43 66 -67 106 -57 24 6 25 8 9 20 -10 7 -27 33 -39 57
-19 39 -25 45 -61 49 l-39 5 33 28 c18 15 45 27 59 28 l27 1 -25 7 c-20 6 -12
9 33 13 41 3 64 11 80 26 11 12 19 23 16 25 -2 2 -31 -2 -64 -8z"/>
<path d="M3951 7397 c-51 -18 -76 -58 -76 -121 0 -98 48 -143 143 -133 l55 6
-84 -85 c-116 -117 -158 -144 -226 -144 -44 0 -58 5 -78 25 -32 32 -34 96 -4
126 32 32 54 21 54 -26 0 -37 2 -40 30 -43 56 -7 74 59 29 105 -22 22 -32 25
-71 20 -84 -9 -126 -90 -88 -170 23 -49 60 -71 120 -71 73 -1 129 31 232 135
l89 90 -4 -61 c-8 -105 33 -160 117 -160 56 0 88 20 108 67 34 82 -47 165
-115 117 -17 -12 -22 -24 -20 -47 3 -28 7 -32 33 -32 25 0 30 4 33 27 3 24 6
27 23 18 14 -8 19 -21 19 -50 0 -47 -27 -70 -82 -70 -65 0 -95 48 -85 137 10
92 71 136 183 131 85 -4 141 -35 169 -94 39 -83 15 -184 -45 -184 -36 0 -59
33 -39 56 10 12 13 12 24 -2 15 -22 35 -10 35 21 0 52 -70 48 -88 -5 -32 -91
94 -136 146 -51 l18 29 16 -29 c42 -73 148 -55 148 25 0 37 -25 66 -58 66 -29
0 -45 -32 -28 -55 11 -16 14 -16 29 -1 15 15 17 15 26 -2 24 -46 -47 -73 -85
-31 -30 33 -26 125 8 176 72 109 273 111 330 3 32 -62 17 -167 -27 -184 -32
-12 -83 -6 -106 12 -25 21 -30 71 -9 96 18 23 28 20 32 -11 2 -22 9 -29 30
-31 22 -3 29 2 34 22 8 34 0 54 -30 67 -58 27 -122 -32 -112 -101 8 -54 54
-90 115 -90 42 0 54 5 80 30 33 34 46 81 38 141 -3 21 -3 39 0 39 3 0 34 -31
69 -69 135 -145 250 -185 334 -115 87 74 43 214 -68 214 -61 0 -103 -68 -69
-114 19 -26 71 -18 75 12 2 13 -1 29 -7 36 -25 30 29 36 59 6 33 -33 23 -105
-19 -137 -9 -7 -39 -13 -67 -13 -65 0 -111 30 -223 143 l-84 85 59 -5 c54 -5
63 -3 91 21 106 89 33 265 -99 239 -70 -13 -105 -105 -54 -138 19 -13 29 -14
45 -5 29 15 25 70 -5 70 -20 0 -17 18 5 30 31 16 57 12 90 -16 27 -22 31 -32
31 -75 0 -77 -50 -113 -128 -91 -20 6 -64 18 -97 28 -33 10 -96 18 -140 18
-71 1 -86 -2 -129 -28 -28 -16 -59 -45 -74 -70 l-26 -42 -31 45 c-20 30 -48
55 -85 74 -51 27 -61 29 -135 24 -44 -3 -118 -18 -164 -32 -120 -38 -160 -28
-181 46 -25 85 69 168 125 112 16 -16 16 -17 -4 -25 -28 -10 -28 -53 0 -68 16
-9 26 -8 45 5 33 22 32 66 -3 104 -33 35 -75 45 -122 28z"/>
<path d="M6927 7393 c9 -23 59 -43 110 -44 37 -1 42 -3 23 -8 -24 -7 -23 -8
11 -14 20 -4 46 -18 59 -32 l23 -25 -35 0 c-39 0 -63 -20 -73 -63 -4 -15 -16
-33 -26 -41 -23 -16 -15 -26 23 -26 29 0 55 21 103 85 l21 27 39 -27 c35 -23
48 -26 97 -23 37 3 64 11 78 23 28 25 19 29 -22 9 -33 -15 -37 -15 -62 2 -22
14 -26 22 -22 43 4 14 9 46 12 71 l5 45 -16 -35 c-36 -75 -36 -77 -9 -110 l26
-30 -27 0 c-15 0 -42 9 -59 19 -31 19 -96 87 -96 99 0 18 -72 51 -127 59 -50
8 -60 7 -56 -4z"/>
<path d="M7160 7383 c-20 -20 -22 -26 -10 -33 25 -16 59 -11 80 10 24 24 26
50 5 50 -8 0 -15 -5 -15 -12 0 -9 -3 -9 -12 0 -15 15 -18 15 -48 -15z"/>
<path d="M3033 7390 c-112 -21 -253 -76 -459 -181 -273 -138 -290 -143 -464
-136 -201 8 -428 56 -695 147 -66 22 -131 40 -145 40 -39 -1 -106 -35 -130
-68 l-23 -31 -32 35 c-28 29 -39 34 -77 34 -31 0 -54 -7 -73 -22 -31 -24 -64
-90 -65 -128 0 -14 20 -86 45 -160 51 -152 96 -322 120 -455 22 -126 31 -340
16 -401 -7 -27 -66 -157 -131 -289 -126 -256 -149 -312 -176 -445 -43 -216 25
-500 138 -571 25 -15 45 -19 83 -16 44 4 54 10 91 50 55 62 78 135 72 236 -4
69 -20 119 -65 202 -5 9 119 39 161 39 53 0 52 17 -1 24 -50 7 -139 -6 -173
-24 -11 -6 -20 -9 -20 -6 0 9 74 134 106 179 24 32 29 45 16 38 -33 -18 -103
-101 -126 -150 l-22 -48 -18 80 c-10 44 -20 105 -23 135 -8 69 -21 45 -22 -38
-1 -88 24 -167 65 -209 20 -20 50 -65 68 -101 43 -89 43 -173 0 -256 -36 -70
-72 -99 -124 -99 -103 0 -193 192 -193 410 0 162 40 287 179 550 103 194 132
263 144 340 27 163 -33 517 -139 830 -52 151 -53 192 -7 242 43 47 92 51 133
10 48 -47 26 -137 -33 -137 -48 0 -70 55 -37 92 18 20 14 32 -9 23 -17 -7 -38
-47 -38 -71 0 -25 56 -74 85 -74 25 0 67 32 77 61 5 11 10 9 23 -9 9 -12 29
-29 45 -37 71 -37 160 5 160 75 0 27 -52 80 -79 80 -24 0 -79 -45 -69 -56 5
-4 16 0 26 9 36 33 92 13 92 -32 0 -63 -87 -88 -136 -39 -60 60 -15 155 78
165 34 4 72 -4 169 -36 233 -78 436 -124 636 -142 205 -18 262 -4 518 133 378
202 555 236 809 152 97 -33 176 -100 176 -151 0 -97 -156 -183 -282 -154 -48
10 -117 45 -173 86 -19 13 -27 12 -83 -15 -37 -17 -83 -51 -112 -80 -59 -60
-66 -85 -12 -40 33 28 192 124 192 116 0 -2 -7 -20 -15 -39 -17 -41 -20 -173
-5 -197 7 -11 10 -3 11 30 0 51 31 177 42 172 3 -2 33 -14 64 -28 185 -82 423
-2 423 142 0 82 -70 144 -215 190 -90 29 -267 41 -362 24z"/>
<path d="M5675 7385 c-222 -49 -333 -162 -266 -271 69 -113 266 -149 413 -76
34 17 64 29 66 28 1 -2 13 -50 26 -107 l24 -104 7 50 c7 45 1 98 -21 173 -6
21 -1 19 67 -19 41 -23 91 -54 112 -71 20 -16 37 -25 37 -20 0 21 -100 107
-152 132 l-57 27 112 22 c62 12 126 22 142 22 27 1 27 2 -10 11 -50 12 -161 4
-207 -15 -18 -8 -52 -31 -73 -51 -80 -73 -185 -106 -278 -86 -114 23 -191 103
-167 174 36 110 275 192 482 166 132 -16 235 -55 493 -186 291 -147 316 -153
520 -135 203 18 517 91 693 160 63 25 112 27 158 5 36 -17 64 -58 64 -93 0
-12 -13 -35 -29 -53 -22 -25 -36 -32 -66 -32 -62 0 -97 61 -57 97 24 22 50 22
74 0 21 -19 37 -9 22 14 -29 46 -106 34 -132 -20 -28 -58 25 -117 104 -117 28
0 44 8 72 36 24 24 38 32 41 23 8 -26 51 -59 76 -59 29 0 85 49 85 74 0 24
-21 64 -38 71 -23 9 -27 -3 -9 -23 33 -37 11 -92 -37 -92 -59 0 -81 90 -33
137 59 60 154 14 164 -79 4 -35 -4 -72 -37 -169 -108 -320 -167 -670 -140
-834 12 -77 41 -146 144 -340 139 -263 179 -387 179 -550 0 -114 -21 -211 -63
-295 -40 -78 -81 -115 -130 -115 -52 0 -88 29 -124 99 -43 83 -43 167 0 256
18 36 48 81 68 101 54 55 83 196 56 279 -8 25 -8 24 -9 -5 0 -16 -11 -78 -23
-137 l-22 -106 -22 48 c-23 50 -93 133 -126 151 -13 7 -8 -6 16 -38 32 -45
106 -170 106 -179 0 -3 -9 0 -20 6 -34 18 -122 30 -172 24 -59 -8 -63 -24 -7
-24 43 0 171 -31 166 -40 -92 -159 -89 -330 7 -437 37 -40 47 -46 91 -50 38
-3 58 1 83 16 113 71 181 355 138 571 -28 137 -54 203 -173 440 -144 285 -147
297 -140 470 9 208 46 385 139 669 60 184 60 217 -1 281 -34 36 -43 40 -86 40
-41 0 -52 -5 -80 -34 l-32 -34 -28 35 c-30 38 -78 63 -121 63 -14 0 -85 -20
-158 -44 -287 -97 -501 -139 -711 -140 -177 -1 -163 -6 -470 149 -269 137
-399 176 -574 174 -47 0 -113 -7 -146 -14z"/>
<path d="M2070 7334 c-24 -21 -28 -29 -19 -40 15 -18 5 -18 -32 2 -17 8 -33
13 -35 11 -7 -7 45 -66 70 -79 11 -6 3 6 -19 26 -25 24 -33 35 -20 31 11 -4
39 -13 62 -21 57 -20 78 -8 77 41 -2 59 -34 70 -84 29z"/>
<path d="M2253 7352 c-18 -11 -11 -83 9 -95 12 -8 25 -4 54 18 l37 28 -32 29
c-32 29 -47 33 -68 20z"/>
<path d="M6646 7331 l-27 -28 31 -27 c49 -41 74 -32 75 29 2 60 -34 73 -79 26z"/>
<path d="M6823 7348 c-13 -22 -11 -78 4 -90 10 -8 24 -8 54 2 23 8 35 16 28
20 -8 6 -8 9 1 15 8 5 3 16 -16 36 -29 31 -58 37 -71 17z"/>
<path d="M2430 7320 c0 -11 7 -20 15 -20 8 0 15 9 15 20 0 11 -7 20 -15 20 -8
0 -15 -9 -15 -20z"/>
<path d="M6504 7329 c-3 -6 -2 -15 4 -21 13 -13 32 -2 32 18 0 16 -26 19 -36
3z"/>
<path d="M2174 7319 c-3 -6 0 -17 7 -25 18 -17 44 -2 36 20 -7 18 -33 21 -43
5z"/>
<path d="M2376 7310 c3 -14 7 -38 7 -53 0 -20 2 -24 8 -15 13 21 10 52 -7 74
-15 18 -15 18 -8 -6z"/>
<path d="M6573 7307 c-11 -23 -7 -77 6 -77 3 0 7 23 8 50 1 28 0 50 -1 50 -2
0 -8 -10 -13 -23z"/>
<path d="M6753 7314 c-8 -21 13 -42 28 -27 13 13 5 43 -11 43 -6 0 -13 -7 -17
-16z"/>
<path d="M6960 7299 c-19 -11 -27 -18 -17 -15 21 7 22 -2 0 -26 -9 -10 -14
-18 -10 -18 3 0 20 18 37 40 17 22 30 40 28 40 -1 -1 -19 -10 -38 -21z"/>
<path d="M3203 7285 c-3 -9 -2 -30 1 -48 5 -24 2 -35 -13 -47 -14 -11 -18 -23
-14 -42 3 -16 8 -28 12 -28 8 0 31 50 31 67 0 15 9 16 27 5 8 -5 9 -13 3 -22
-14 -22 7 -50 38 -50 45 0 112 30 112 51 0 11 -4 19 -10 19 -5 0 -10 -10 -10
-22 -1 -22 -1 -23 -15 -4 -8 11 -15 30 -15 42 0 26 -23 47 -46 42 -14 -2 -25
-16 -41 -46 -5 -11 -43 22 -42 36 0 14 2 14 8 -2 7 -18 8 -18 14 -2 5 13 1 19
-13 23 -25 7 -26 19 -2 32 16 10 16 10 -1 11 -10 0 -20 -7 -24 -15z"/>
<path d="M5795 7280 c18 -19 17 -20 -4 -20 -18 0 -21 -5 -19 -26 4 -32 -18
-43 -27 -15 -7 24 -51 39 -67 23 -6 -6 -14 -28 -17 -49 -4 -21 -11 -36 -16
-33 -6 3 -9 11 -9 18 2 16 -18 11 -24 -6 -4 -14 78 -52 113 -52 29 0 47 22 43
52 -2 15 3 24 14 26 13 2 18 -7 23 -43 6 -35 10 -43 20 -35 30 25 21 70 -16
82 -9 3 -9 10 0 27 16 29 6 71 -16 71 -14 0 -14 -2 2 -20z m5 -46 c0 -8 -4
-12 -10 -9 -5 3 -10 10 -10 16 0 5 5 9 10 9 6 0 10 -7 10 -16z"/>
<path d="M2147 7241 c-6 -14 -16 -29 -22 -33 -5 -4 0 -8 12 -8 12 0 30 -11 40
-25 l18 -26 30 31 c24 25 27 34 19 56 -7 22 -16 27 -47 29 -33 2 -40 -2 -50
-24z"/>
<path d="M6729 7256 c-17 -18 -10 -52 16 -76 l25 -23 23 20 c12 11 29 23 37
26 9 3 10 6 3 6 -7 1 -13 10 -13 20 0 11 -5 23 -12 27 -17 11 -68 10 -79 0z"/>
<path d="M2384 7209 c-4 -7 -26 -9 -57 -6 -45 4 -48 3 -32 -9 27 -20 75 -17
110 6 27 18 28 20 8 20 -12 0 -25 -5 -29 -11z"/>
<path d="M6565 7200 c35 -23 82 -25 108 -6 16 12 16 14 2 20 -9 3 -14 2 -11
-3 10 -15 -43 -19 -70 -5 -42 22 -64 17 -29 -6z"/>
<path d="M2845 7180 l-40 -6 40 -7 c22 -4 73 -14 113 -22 83 -17 122 -19 122
-6 0 25 -162 54 -235 41z"/>
<path d="M880 6748 c0 -4 7 -23 17 -42 15 -33 15 -36 -1 -61 -15 -23 -23 -26
-49 -21 -18 3 -50 8 -72 11 l-40 5 45 -20 c24 -12 47 -25 50 -30 3 -5 23 4 43
21 l37 30 0 -26 c0 -42 -24 -78 -94 -140 -36 -31 -68 -66 -72 -77 -12 -38 -21
-128 -12 -128 19 0 48 67 49 115 1 40 3 45 9 25 7 -21 8 -22 9 -5 1 24 37 85
50 85 4 0 9 -11 9 -25 0 -33 26 -61 69 -76 19 -6 38 -21 43 -33 7 -18 9 -16
15 17 9 45 -10 79 -58 103 -46 24 -48 33 -20 81 21 37 25 53 21 99 -3 39 -11
62 -26 77 -12 12 -22 18 -22 15z"/>
<path d="M8095 6730 c-11 -13 -20 -41 -23 -75 -4 -45 0 -61 21 -98 28 -48 26
-57 -20 -81 -48 -24 -67 -58 -58 -103 6 -33 8 -35 15 -17 5 12 24 27 43 33 43
15 70 43 70 76 0 14 4 25 8 25 13 0 49 -61 50 -85 1 -17 2 -16 9 5 7 20 8 16
9 -23 1 -51 21 -101 44 -110 11 -4 12 6 5 54 -9 71 -22 91 -89 149 -60 51 -78
77 -89 125 -10 42 -5 43 39 5 19 -17 38 -26 41 -20 3 5 26 18 50 30 l45 20
-40 -5 c-22 -3 -54 -8 -72 -11 -26 -5 -34 -2 -49 21 -16 25 -16 28 0 62 20 42
16 51 -9 23z"/>
<path d="M724 6588 c-4 -6 -2 -14 4 -16 8 -2 9 -9 3 -21 -7 -12 -3 -23 15 -40
13 -12 28 -20 34 -16 17 11 11 60 -10 83 -23 25 -35 27 -46 10z"/>
<path d="M8230 6578 c-21 -23 -27 -72 -10 -83 6 -4 23 5 37 19 20 20 23 29 14
40 -9 11 -9 15 0 18 13 4 4 28 -11 28 -5 0 -18 -10 -30 -22z"/>
<path d="M820 6330 c17 -33 17 -33 24 -22 3 5 -4 18 -16 28 -21 19 -21 19 -8
-6z"/>
<path d="M8166 6331 c-10 -10 -13 -22 -8 -25 5 -3 14 6 20 19 14 30 11 31 -12
6z"/>
<path d="M797 6242 c-45 -46 -33 -75 31 -78 47 -1 56 16 38 68 -8 24 -15 37
-16 29 0 -10 -3 -11 -13 -2 -10 8 -20 4 -40 -17z"/>
<path d="M8132 6228 c-16 -49 -4 -68 41 -65 64 5 75 36 28 81 -20 19 -31 24
-36 16 -5 -8 -10 -9 -14 -2 -4 6 -12 -7 -19 -30z"/>
<path d="M8071 6181 c-1 -8 -11 -25 -22 -37 l-22 -23 25 -29 c36 -43 84 -29
82 25 -1 38 -11 53 -34 53 -10 0 -21 6 -23 13 -4 8 -6 8 -6 -2z"/>
<path d="M905 6172 c-31 -6 -40 -18 -39 -52 2 -57 45 -73 82 -28 l24 28 -24
28 c-14 17 -30 26 -43 24z"/>
<path d="M698 6144 l-27 -27 36 -28 c48 -39 73 -27 70 34 -2 37 -5 42 -27 45
-16 2 -34 -6 -52 -24z"/>
<path d="M8227 6163 c-3 -5 -5 -25 -5 -46 0 -55 25 -65 71 -28 l36 28 -27 27
c-27 25 -66 35 -75 19z"/>
<path d="M805 6130 c-4 -7 -3 -16 3 -22 14 -14 45 -2 40 15 -6 16 -34 21 -43
7z"/>
<path d="M8155 6130 c-4 -7 -3 -16 3 -22 14 -14 45 -2 40 15 -6 16 -34 21 -43
7z"/>
<path d="M780 6066 c-17 -17 -11 -41 18 -69 l28 -27 29 30 c23 24 27 33 18 52
-7 17 -19 23 -46 23 -20 1 -41 -3 -47 -9z"/>
<path d="M8127 6053 c-9 -20 -6 -28 18 -53 l29 -30 28 27 c47 45 35 76 -30 79
-27 1 -36 -4 -45 -23z"/>
<path d="M917 6034 c-10 -10 -9 -26 2 -20 15 10 18 -41 4 -74 -19 -46 -16 -57
7 -27 11 14 20 38 20 54 -1 32 -23 77 -33 67z"/>
<path d="M8061 6014 c-17 -37 -14 -73 9 -101 23 -30 26 -19 7 27 -15 34 -11
92 4 68 7 -10 9 -9 9 4 0 28 -16 29 -29 2z"/>
<path d="M822 5924 c28 -15 78 -10 78 7 0 6 -7 6 -18 0 -11 -6 -24 -6 -33 0
-7 5 -23 9 -34 8 -17 0 -16 -2 7 -15z"/>
<path d="M8100 5931 c0 -17 50 -22 78 -7 23 13 24 15 7 15 -11 1 -27 -3 -34
-8 -9 -6 -22 -6 -33 0 -11 6 -18 6 -18 0z"/>
<path d="M792 5873 c4 -21 33 -25 33 -3 0 8 -8 16 -18 18 -14 3 -18 -1 -15
-15z"/>
<path d="M8174 5879 c-3 -6 -2 -15 4 -21 13 -13 32 -2 32 18 0 16 -26 19 -36
3z"/>
<path d="M940 5175 c-21 -26 1 -36 44 -21 37 13 38 14 18 25 -28 15 -47 14
-62 -4z"/>
<path d="M7996 5178 c-17 -9 -15 -12 20 -24 43 -15 65 -5 44 21 -15 18 -37 19
-64 3z"/>
<path d="M842 5158 c-7 -7 -12 -16 -12 -22 0 -6 5 -5 12 2 16 16 28 15 28 -3
0 -11 8 -15 27 -13 20 2 28 -2 31 -16 2 -11 0 -16 -6 -12 -14 8 -42 -21 -42
-43 0 -25 19 -39 60 -43 19 -2 33 -7 30 -13 -3 -5 -11 -9 -18 -9 -16 2 -11
-18 6 -24 14 -4 52 78 52 113 0 30 -23 48 -50 40 -16 -5 -23 -2 -27 13 -5 19
-41 42 -66 42 -7 0 -18 -5 -25 -12z m58 -18 c0 -5 -4 -10 -10 -10 -5 0 -10 5
-10 10 0 6 5 10 10 10 6 0 10 -4 10 -10z"/>
<path d="M8093 5158 c-12 -6 -24 -19 -26 -30 -4 -15 -11 -18 -27 -13 -27 8
-50 -10 -50 -40 0 -35 38 -117 52 -113 18 6 21 26 4 24 -8 0 -16 4 -18 9 -2 6
13 11 32 13 41 4 60 18 60 43 0 22 -28 51 -42 43 -6 -4 -8 1 -6 12 3 14 11 18
31 16 22 -2 27 1 27 19 0 21 1 22 20 4 21 -19 28 -7 8 13 -14 14 -35 14 -65 0z
m27 -18 c0 -5 -4 -10 -10 -10 -5 0 -10 5 -10 10 0 6 5 10 10 10 6 0 10 -4 10
-10z"/>
<path d="M1063 4726 c-88 -40 -79 -186 12 -186 39 0 58 19 53 57 -3 31 -38 44
-62 24 -30 -25 -36 29 -6 59 29 29 81 26 119 -6 27 -23 31 -32 31 -77 0 -74
-27 -115 -166 -249 l-59 -58 0 64 c0 55 -4 68 -24 90 -66 71 -193 49 -226 -38
-30 -77 9 -146 82 -146 53 0 82 67 36 84 -22 9 -53 -3 -53 -20 0 -17 -12 -18
-28 -2 -22 22 -14 68 17 99 23 23 38 29 71 29 33 0 48 -6 71 -29 35 -36 36
-54 4 -162 -38 -126 -43 -212 -16 -276 24 -54 58 -91 105 -115 l29 -15 -44
-24 c-62 -34 -102 -103 -107 -184 -4 -59 3 -97 50 -262 17 -59 3 -93 -46 -117
-32 -16 -44 -17 -77 -7 -63 19 -91 87 -52 126 16 16 17 16 25 -4 10 -28 53
-28 68 -1 24 46 -38 87 -89 59 -14 -8 -35 -32 -45 -53 -17 -36 -18 -43 -5 -79
18 -50 54 -78 111 -84 56 -7 113 18 133 58 17 33 19 92 5 120 -22 41 10 15
101 -78 105 -109 129 -149 129 -217 0 -64 -31 -96 -94 -96 -37 0 -48 4 -62 25
-23 35 -14 50 32 50 35 0 39 3 42 26 7 57 -60 78 -103 34 -54 -53 -17 -156 62
-171 48 -9 108 11 131 44 31 43 35 85 17 148 -14 49 -30 70 -113 157 l-97 100
43 -6 c94 -12 172 39 172 112 0 80 -37 123 -107 123 -29 0 -43 -7 -65 -31 -32
-36 -35 -57 -12 -89 12 -17 24 -22 47 -20 26 2 33 8 35 30 3 23 -1 28 -29 35
-30 8 -31 10 -15 26 23 23 71 22 96 -3 26 -26 27 -89 1 -121 -15 -19 -30 -24
-82 -27 -55 -3 -69 0 -99 20 -53 36 -72 80 -68 164 3 60 8 77 32 108 42 56 81
76 148 76 45 0 63 -5 78 -20 38 -38 16 -100 -30 -85 -24 7 -26 21 -5 29 25 9
6 37 -24 34 -21 -2 -27 -9 -29 -34 -7 -73 107 -83 131 -11 12 38 -8 84 -47
108 -18 11 -24 19 -15 19 21 0 56 39 64 72 7 26 -8 66 -29 80 -21 15 -73 8
-90 -11 -34 -37 2 -102 38 -71 15 12 15 15 1 30 -18 19 -11 30 21 30 37 0 47
-55 15 -84 -40 -37 -139 -29 -196 16 -62 49 -84 171 -45 256 52 114 250 106
250 -10 0 -28 -7 -46 -25 -63 -28 -29 -51 -31 -83 -9 -29 20 -28 32 6 36 18 2
28 9 30 24 7 49 -68 57 -90 9 -16 -35 -2 -73 35 -95 48 -30 83 -26 123 14 28
28 34 42 34 75 0 89 -58 137 -156 129 l-54 -5 84 88 c47 47 95 106 107 130 28
55 31 134 6 172 -36 55 -108 78 -164 53z"/>
<path d="M7846 4730 c-42 -13 -75 -48 -87 -93 -21 -79 11 -147 127 -266 l84
-88 -54 5 c-98 8 -156 -40 -156 -129 0 -33 6 -47 34 -75 40 -40 75 -44 123
-14 37 22 51 60 35 95 -22 48 -97 40 -90 -9 2 -15 12 -22 31 -24 33 -4 34 -16
5 -36 -32 -22 -55 -20 -83 9 -34 33 -34 93 -1 124 36 34 101 39 160 13 37 -17
51 -30 66 -64 39 -85 17 -207 -45 -256 -57 -45 -156 -53 -196 -16 -32 29 -22
84 15 84 32 0 39 -11 20 -31 -14 -16 -14 -18 6 -29 43 -23 70 39 32 73 -19 17
-68 22 -88 9 -21 -14 -36 -54 -29 -80 8 -33 43 -72 64 -72 9 0 3 -8 -15 -19
-39 -24 -59 -70 -47 -108 24 -72 138 -62 131 11 -2 25 -8 32 -29 34 -30 3 -49
-25 -24 -34 21 -8 19 -22 -5 -29 -46 -15 -68 47 -30 85 15 15 33 20 78 20 67
0 106 -20 148 -76 24 -31 29 -48 32 -108 4 -84 -15 -128 -68 -164 -30 -20 -44
-23 -99 -20 -52 3 -67 8 -82 27 -26 32 -25 95 1 121 25 25 73 26 96 3 16 -16
15 -18 -15 -26 -28 -7 -32 -12 -29 -35 2 -22 9 -28 35 -30 23 -2 35 3 47 20
22 31 20 52 -9 86 -66 79 -175 24 -175 -88 0 -74 77 -125 172 -113 l43 6 -97
-100 c-83 -87 -99 -108 -113 -157 -18 -63 -14 -105 17 -148 23 -33 83 -53 131
-44 79 15 116 118 62 171 -43 44 -110 23 -103 -34 3 -23 7 -26 42 -26 46 0 55
-15 32 -50 -14 -21 -25 -25 -62 -25 -63 0 -94 32 -94 96 0 69 24 109 132 219
l98 100 -6 -56 c-11 -99 46 -157 144 -146 57 6 94 34 110 82 23 69 -23 145
-89 145 -38 0 -66 -39 -49 -69 15 -28 58 -28 68 0 8 20 9 20 25 4 39 -39 11
-107 -52 -126 -33 -10 -45 -9 -77 7 -49 24 -63 58 -46 117 47 165 54 203 50
262 -5 81 -45 150 -107 184 l-44 24 29 15 c47 24 81 61 105 115 27 64 22 150
-16 276 -32 108 -31 126 4 162 23 23 38 29 71 29 33 0 48 -6 71 -29 31 -31 39
-77 17 -99 -16 -16 -28 -15 -28 2 0 17 -31 29 -53 20 -46 -17 -17 -84 36 -84
43 0 73 22 87 66 16 47 -9 118 -49 138 -72 38 -150 24 -189 -34 -20 -30 -23
-43 -18 -89 l5 -54 -86 84 c-114 112 -143 158 -143 225 0 46 4 55 31 78 38 32
90 35 119 6 30 -30 24 -84 -6 -59 -7 6 -23 9 -36 7 -30 -4 -38 -56 -12 -75 66
-49 138 34 104 121 -18 47 -86 74 -144 56z"/>
<path d="M702 4098 c-18 -18 -15 -56 7 -87 25 -34 129 -91 167 -91 l29 0 -27
23 c-14 12 -39 47 -53 77 -15 30 -34 63 -43 73 -17 20 -62 23 -80 5z"/>
<path d="M8217 4092 c-9 -10 -26 -40 -38 -67 -12 -28 -35 -62 -52 -77 l-29
-28 27 0 c37 0 142 57 166 91 22 31 25 69 7 87 -18 18 -63 15 -81 -6z"/>
<path d="M568 3905 c-57 -32 -40 -95 32 -116 35 -11 50 -9 118 10 42 13 108
29 146 37 38 8 71 16 73 18 3 2 -20 7 -49 11 -29 4 -89 18 -132 31 -90 27
-149 30 -188 9z"/>
<path d="M8240 3896 c-42 -13 -99 -27 -128 -31 -29 -4 -52 -9 -49 -11 2 -2 35
-10 73 -17 38 -8 104 -25 146 -37 67 -21 82 -22 117 -11 74 22 91 85 31 116
-40 21 -102 18 -190 -9z"/>
<path d="M805 3756 c-63 -31 -90 -53 -108 -89 -19 -36 -12 -62 20 -76 36 -17
68 7 97 72 13 29 38 67 56 85 33 31 33 32 9 32 -13 0 -46 -11 -74 -24z"/>
<path d="M8128 3750 c18 -16 44 -54 57 -84 30 -68 61 -92 98 -75 14 6 27 20
30 30 6 22 -17 68 -46 92 -34 28 -119 67 -147 67 -24 0 -24 0 8 -30z"/>
<path d="M882 2940 c-76 -46 -140 -208 -149 -376 -11 -192 28 -325 179 -622
59 -117 117 -240 128 -272 52 -154 1 -513 -126 -893 -56 -168 -55 -204 5 -267
33 -35 43 -40 83 -40 49 0 92 25 103 60 9 28 18 25 33 -10 7 -16 29 -39 47
-50 62 -38 89 -36 256 18 278 91 471 130 674 139 168 7 189 1 467 -138 229
-115 322 -151 446 -175 293 -56 627 76 587 233 -11 45 -53 91 -108 121 -47 24
-62 27 -152 27 -91 0 -106 -3 -166 -31 l-67 -32 -16 57 c-8 31 -18 81 -22 111
-6 45 -9 50 -15 30 -12 -44 -10 -126 6 -170 21 -59 19 -64 -12 -42 -16 11 -46
29 -69 40 -23 12 -63 37 -89 57 -47 36 -47 36 -27 8 49 -68 154 -142 204 -143
10 0 45 18 78 39 54 35 130 61 177 61 9 0 44 -8 77 -17 82 -23 146 -83 146
-137 0 -71 -59 -123 -189 -166 -141 -47 -302 -45 -463 6 -45 14 -181 77 -302
139 -291 148 -299 150 -461 148 -201 -3 -476 -58 -732 -147 -111 -39 -159 -44
-203 -21 -80 42 -81 142 0 175 63 26 129 -34 95 -86 -18 -27 -56 -32 -75 -9
-16 19 -30 19 -30 0 0 -25 45 -48 80 -40 65 14 82 95 29 139 -52 44 -134 29
-171 -31 l-15 -25 -21 36 c-36 61 -105 58 -141 -5 -12 -22 -12 -31 -2 -57 12
-29 38 -49 49 -37 3 3 -2 13 -11 23 -33 37 -11 92 37 92 59 0 81 -90 33 -137
-59 -60 -154 -14 -164 80 -4 36 4 73 41 183 82 248 126 459 141 669 12 155
-10 228 -143 480 -143 270 -185 398 -185 560 0 196 82 390 173 410 101 22 200
-139 170 -277 -12 -60 -45 -131 -72 -155 -10 -9 -18 -27 -18 -41 0 -39 60
-140 108 -183 51 -45 79 -53 40 -11 -25 26 -129 194 -124 200 2 1 20 -5 42
-14 45 -19 180 -22 197 -5 8 8 0 11 -32 11 -38 0 -153 24 -173 36 -3 2 8 32
25 66 24 48 32 79 35 139 6 107 -17 177 -78 241 -42 43 -51 48 -91 48 -26 0
-57 -8 -77 -20z"/>
<path d="M7950 2912 c-61 -63 -84 -135 -78 -240 3 -59 12 -92 35 -140 16 -34
27 -64 24 -66 -19 -12 -135 -36 -172 -36 -32 0 -40 -3 -32 -11 18 -18 152 -14
197 5 22 9 40 15 42 14 5 -6 -99 -174 -124 -200 -39 -42 -11 -34 40 11 48 43
108 144 108 183 0 14 -8 32 -18 41 -27 24 -60 95 -72 155 -30 138 69 299 170
277 91 -20 173 -214 173 -410 0 -162 -42 -290 -185 -560 -133 -252 -155 -325
-144 -480 15 -204 62 -425 142 -669 37 -110 45 -148 41 -184 -10 -93 -105
-139 -164 -79 -48 47 -26 137 33 137 48 0 70 -55 37 -92 -18 -20 -14 -32 9
-23 17 7 38 47 38 71 0 9 -13 29 -29 45 -39 39 -75 38 -113 -3 -27 -29 -31
-30 -39 -15 -15 25 -63 47 -104 47 -74 0 -123 -92 -75 -140 29 -29 66 -35 95
-16 14 9 25 23 25 31 0 19 -14 19 -30 0 -19 -23 -57 -18 -75 9 -34 51 33 112
95 86 108 -45 60 -190 -63 -190 -18 0 -80 16 -138 35 -275 94 -535 146 -739
148 -163 2 -172 -1 -462 -152 -293 -152 -450 -194 -624 -170 -255 35 -389 155
-294 262 70 81 214 105 320 56 31 -14 69 -38 84 -52 16 -15 33 -27 38 -27 5 0
7 -4 3 -10 -3 -5 24 -18 61 -30 67 -20 158 -25 204 -10 25 8 24 8 -5 9 -16 1
-79 11 -138 23 l-109 21 49 23 c58 28 114 73 145 117 l23 32 -25 -18 c-68 -47
-210 -133 -210 -125 0 2 7 21 15 43 15 42 19 157 6 190 -6 14 -10 2 -14 -40
-4 -33 -14 -84 -22 -113 l-16 -53 -34 20 c-154 90 -382 54 -446 -70 -68 -134
113 -261 391 -276 191 -10 324 30 643 192 111 57 226 110 256 119 155 46 521
-8 881 -129 74 -25 146 -45 160 -45 41 1 106 36 125 68 l18 30 32 -34 c28 -29
39 -34 80 -34 43 0 52 4 86 40 60 63 61 99 5 266 -91 274 -134 479 -143 684
-7 174 -4 186 140 471 157 312 195 440 184 633 -9 168 -73 330 -149 376 -20
12 -51 20 -77 20 -40 0 -49 -5 -91 -48z"/>
<path d="M940 2740 c0 -5 9 -10 20 -10 11 0 20 5 20 10 0 6 -9 10 -20 10 -11
0 -20 -4 -20 -10z"/>
<path d="M8020 2740 c0 -5 9 -10 20 -10 11 0 20 5 20 10 0 6 -9 10 -20 10 -11
0 -20 -4 -20 -10z"/>
<path d="M965 2710 c-3 -5 -19 -10 -34 -10 -52 0 -69 -55 -23 -75 12 -5 22
-15 22 -20 0 -16 -22 -35 -40 -34 -11 0 -10 3 4 8 18 7 18 8 2 14 -13 5 -19 1
-23 -13 -7 -25 -19 -26 -33 -2 -10 15 -10 15 -8 -3 3 -17 11 -20 50 -20 32 0
51 -5 60 -17 9 -12 22 -15 41 -11 15 3 27 8 27 12 0 8 -50 31 -68 31 -9 0 -12
6 -8 16 3 9 6 18 6 21 0 3 6 0 14 -6 20 -17 56 3 56 31 0 27 -22 88 -31 88 -4
0 -11 -4 -14 -10z"/>
<path d="M8002 2687 c-7 -18 -12 -43 -12 -55 0 -27 36 -48 54 -32 10 8 15 6
20 -6 8 -22 8 -24 -7 -24 -17 0 -67 -23 -67 -31 0 -4 12 -9 28 -12 18 -4 31
-1 40 11 9 12 28 17 60 17 39 0 47 3 50 20 2 18 2 18 -8 3 -14 -24 -26 -23
-33 2 -4 14 -10 18 -23 13 -16 -6 -16 -7 2 -14 14 -5 15 -8 4 -8 -18 -1 -40
18 -40 34 0 5 10 15 22 20 46 20 29 75 -23 75 -15 0 -31 5 -34 10 -11 18 -21
11 -33 -23z"/>
<path d="M966 2378 c-22 -82 -26 -119 -17 -173 l8 -50 7 40 c3 22 13 73 21
113 8 40 15 84 15 97 0 43 -19 27 -34 -27z"/>
<path d="M8000 2405 c0 -13 7 -57 15 -97 8 -40 17 -91 21 -113 l7 -40 9 45 c9
49 4 97 -18 178 -15 54 -34 70 -34 27z"/>
<path d="M797 1803 c-13 -12 -7 -23 13 -23 11 0 20 7 20 15 0 15 -21 21 -33 8z"/>
<path d="M8170 1796 c0 -10 9 -16 21 -16 24 0 21 23 -4 28 -10 2 -17 -3 -17
-12z"/>
<path d="M915 1755 c14 -62 17 -108 8 -102 -5 3 -10 0 -10 -8 0 -21 14 -18 27
4 16 31 12 73 -11 106 l-21 30 7 -30z"/>
<path d="M8068 1752 c-10 -17 -18 -43 -18 -59 0 -33 24 -72 37 -59 4 5 2 11
-4 13 -16 6 -17 57 -2 84 18 35 6 54 -13 21z"/>
<path d="M814 1735 c-23 -17 -5 -20 30 -4 20 9 29 9 41 -1 8 -7 15 -8 15 -2 0
24 -57 29 -86 7z"/>
<path d="M8113 1743 c-7 -2 -13 -9 -13 -15 0 -6 6 -5 15 2 12 10 21 10 41 1
35 -16 53 -13 30 4 -20 15 -49 18 -73 8z"/>
<path d="M797 1671 c-29 -35 -32 -48 -17 -71 6 -10 22 -14 47 -11 60 5 68 29
25 80 l-28 34 -27 -32z"/>
<path d="M8144 1665 c-34 -45 -25 -67 30 -76 30 -5 39 -2 47 13 13 24 5 49
-25 77 l-24 22 -28 -36z"/>
<path d="M700 1574 c-30 -26 -30 -27 -13 -46 26 -29 51 -40 73 -33 16 5 20 15
20 50 0 30 -5 45 -16 49 -25 9 -30 8 -64 -20z"/>
<path d="M881 1591 c-8 -5 -15 -26 -15 -47 -1 -33 3 -40 25 -47 21 -8 30 -5
57 20 l32 29 -31 27 c-33 29 -46 32 -68 18z"/>
<path d="M8047 1570 l-28 -27 25 -17 c14 -9 26 -23 26 -31 0 -13 5 -13 32 -2
27 11 31 18 31 51 0 61 -38 73 -86 26z"/>
<path d="M8234 1592 c-7 -4 -12 -26 -12 -49 -1 -33 3 -43 18 -48 22 -7 47 4
73 33 17 19 17 20 -13 46 -33 27 -47 31 -66 18z"/>
<path d="M803 1554 c-9 -23 13 -40 32 -24 12 10 13 16 4 26 -15 18 -28 18 -36
-2z"/>
<path d="M8162 1557 c-15 -17 1 -42 23 -33 18 6 17 37 -1 43 -6 2 -16 -2 -22
-10z"/>
<path d="M779 1488 c-14 -25 -11 -34 17 -68 21 -24 29 -28 40 -19 11 9 14 8
14 -2 1 -8 7 4 15 26 20 56 12 72 -36 77 -31 3 -43 0 -50 -14z"/>
<path d="M8168 1502 c-45 -4 -53 -22 -33 -77 8 -22 14 -34 15 -26 0 10 3 11
14 2 11 -9 19 -5 40 19 43 52 27 87 -36 82z"/>
<path d="M8098 1405 c5 -11 28 -37 51 -58 23 -21 41 -43 41 -49 0 -6 3 -9 6
-6 3 3 -4 24 -16 47 -21 42 -34 54 -24 24 3 -10 -11 0 -32 22 -20 22 -32 31
-26 20z"/>
<path d="M866 1373 c-24 -23 -28 -25 -22 -8 6 20 6 20 -9 1 -36 -47 -10 -48
35 -1 40 41 37 47 -4 8z"/>
<path d="M731 1338 c13 -79 25 -101 86 -153 65 -56 93 -98 93 -139 l0 -30 -30
29 -29 28 -48 -18 c-26 -10 -52 -22 -57 -26 -16 -14 27 -11 73 6 41 14 43 14
67 -10 25 -25 26 -55 3 -79 -12 -13 -11 -26 1 -26 5 0 17 14 26 32 23 43 15
125 -16 168 l-23 33 20 16 c12 9 34 23 51 32 32 18 49 62 37 99 -6 20 -8 20
-19 4 -7 -9 -33 -26 -57 -38 -39 -18 -45 -26 -49 -59 l-5 -39 -24 25 c-13 14
-27 41 -31 59 l-8 33 -2 -30 c-2 -17 -6 -3 -10 33 -6 56 -29 102 -50 102 -4 0
-3 -24 1 -52z"/>
<path d="M8240 1358 c-12 -20 -20 -53 -21 -83 -1 -44 -2 -46 -9 -20 -8 30 -8
30 -9 3 0 -14 -13 -41 -28 -59 l-28 -33 -5 39 c-4 36 -10 42 -49 61 -24 12
-50 29 -57 38 -11 16 -13 16 -19 -4 -12 -37 5 -81 37 -99 17 -9 39 -23 51 -32
l20 -16 -23 -33 c-31 -43 -39 -125 -16 -168 9 -18 21 -32 26 -32 12 0 13 13 1
26 -23 24 -22 54 3 79 24 24 26 24 67 10 46 -17 89 -20 74 -6 -6 4 -32 16 -58
26 l-48 18 -29 -28 -30 -29 0 30 c0 41 28 83 93 139 61 52 73 74 86 153 9 60
-1 66 -29 20z"/>
<path d="M805 1309 c-4 -6 -5 -12 -2 -15 2 -3 7 2 10 11 7 17 1 20 -8 4z"/>
<path d="M753 1162 c-3 -12 -12 -22 -19 -22 -19 0 -18 -9 3 -32 16 -18 16 -18
0 -12 -12 4 -17 1 -17 -10 0 -24 36 -20 54 6 20 29 20 62 0 78 -13 11 -16 10
-21 -8z"/>
<path d="M8222 1168 c-18 -18 -14 -63 6 -81 24 -22 52 -22 52 -1 0 11 -5 14
-17 10 -16 -6 -16 -6 0 12 21 23 22 32 2 32 -8 0 -15 6 -15 14 0 21 -15 27
-28 14z"/>
<path d="M3704 806 c-49 -22 -74 -61 -74 -118 0 -60 11 -83 50 -103 65 -34
140 -3 140 59 0 37 -15 56 -46 56 -32 0 -49 -25 -36 -54 20 -44 -25 -51 -57
-10 -30 38 -27 80 8 115 24 24 38 29 76 29 25 0 59 -7 75 -15 35 -18 120 -93
183 -162 l48 -51 -59 5 c-55 5 -61 3 -92 -24 -31 -27 -34 -37 -38 -94 -3 -55
-1 -68 19 -93 68 -86 202 -56 202 46 0 49 -46 74 -77 42 -21 -20 -20 -30 5
-55 26 -26 10 -49 -33 -49 -46 0 -88 48 -88 100 0 33 6 48 29 71 36 36 55 36
162 3 46 -14 118 -28 159 -31 64 -5 82 -2 123 17 47 22 117 92 117 117 0 22
18 14 24 -11 9 -36 89 -101 143 -116 55 -16 174 -2 268 30 74 25 106 25 138 0
48 -38 44 -130 -7 -165 -27 -20 -70 -19 -87 1 -11 13 -10 17 4 25 23 14 22 56
-3 69 -46 24 -87 -38 -59 -89 8 -14 31 -34 52 -44 33 -17 42 -17 79 -5 55 17
88 64 88 125 0 93 -53 139 -149 130 l-56 -6 100 97 c111 107 151 132 217 132
53 0 83 -19 98 -64 14 -42 0 -82 -35 -98 -32 -15 -52 0 -37 29 26 48 -44 74
-74 28 -14 -21 -14 -30 -4 -55 39 -95 190 -47 190 59 0 84 -50 135 -135 135
-73 1 -127 -30 -229 -131 l-88 -88 6 37 c10 57 -3 105 -39 144 -27 28 -39 34
-74 34 -48 0 -96 -21 -111 -49 -20 -39 -12 -91 19 -122 36 -35 64 -37 96 -5
31 31 22 69 -18 74 -22 3 -27 -2 -34 -29 -8 -30 -10 -31 -26 -15 -43 44 -2
116 67 116 59 0 86 -34 86 -108 0 -112 -63 -165 -187 -160 -62 3 -76 7 -110
34 -50 40 -73 87 -73 152 0 39 5 57 20 72 38 38 100 16 85 -30 -6 -20 -8 -20
-24 -5 -17 14 -19 14 -31 -1 -32 -38 33 -71 69 -35 60 60 -20 147 -98 106 -17
-8 -31 -19 -31 -23 0 -4 -4 -13 -9 -21 -7 -11 -15 -7 -37 18 -38 41 -81 49
-117 21 -50 -39 -25 -127 34 -118 31 4 47 32 29 52 -12 15 -15 15 -30 1 -19
-18 -30 -11 -30 21 0 41 59 47 89 8 37 -47 18 -159 -35 -206 -83 -73 -249 -59
-299 24 -29 50 -27 139 4 172 35 37 101 37 130 0 25 -32 26 -52 5 -82 -20 -29
-32 -28 -36 6 -2 20 -9 28 -27 30 -42 6 -55 -44 -21 -78 29 -29 66 -25 101 9
42 42 40 92 -5 137 -29 29 -41 34 -79 34 -82 0 -135 -71 -124 -166 2 -24 3
-44 1 -44 -2 0 -40 38 -86 84 -46 46 -102 93 -125 105 -56 28 -120 35 -159 17z"/>
<path d="M3193 579 c-14 -14 -18 -69 -5 -69 4 0 13 -4 21 -9 10 -7 11 -13 1
-31 -15 -28 -5 -70 17 -70 14 0 14 2 -2 20 -18 19 -17 20 4 20 18 0 21 5 19
26 -4 32 18 43 27 15 7 -24 51 -39 67 -23 6 6 14 28 17 49 4 21 11 36 16 33 6
-3 9 -11 9 -18 -2 -16 18 -11 24 6 4 14 -78 52 -113 52 -29 0 -47 -22 -43 -52
2 -15 -3 -24 -15 -26 -11 -2 -17 2 -16 10 1 7 -1 20 -4 28 -3 8 -7 23 -9 33
-2 15 -5 16 -15 6z m47 -120 c0 -5 -4 -9 -10 -9 -5 0 -10 7 -10 16 0 8 5 12
10 9 6 -3 10 -10 10 -16z"/>
<path d="M5658 563 c-25 -10 -38 -22 -38 -34 0 -11 5 -19 10 -19 6 0 10 10 10
23 1 21 1 22 15 3 8 -11 15 -30 15 -42 0 -45 52 -58 74 -19 6 11 12 22 13 24
1 2 14 -4 28 -13 15 -10 23 -22 19 -28 -5 -8 -10 -5 -14 7 -6 17 -7 17 -13 1
-5 -13 -1 -19 13 -23 25 -7 26 -19 3 -33 -16 -10 -16 -10 2 -8 17 3 20 11 20
50 0 32 5 51 17 60 12 9 15 22 11 41 -3 15 -8 27 -12 27 -8 0 -31 -50 -31 -67
0 -15 -2 -15 -24 -7 -12 5 -14 10 -6 20 8 9 8 18 0 33 -13 25 -57 27 -112 4z"/>
<path d="M2950 554 c-36 -7 -83 -17 -105 -20 l-40 -7 50 -8 c57 -9 163 4 206
27 16 8 29 17 29 19 0 9 -73 3 -140 -11z"/>
<path d="M1872 531 c-15 -16 -36 -41 -47 -56 l-21 -27 -39 27 c-35 23 -48 26
-97 23 -37 -3 -64 -11 -78 -23 -28 -25 -19 -29 22 -9 33 15 37 15 62 -2 24
-15 27 -22 21 -48 -3 -17 -8 -49 -11 -71 l-5 -40 24 53 c13 29 27 49 32 45 12
-10 -14 26 -39 55 l-19 22 28 0 c15 0 42 -9 59 -19 31 -19 96 -87 96 -99 0
-18 72 -51 127 -59 50 -8 60 -7 56 4 -9 23 -59 43 -110 44 -37 1 -42 3 -23 8
25 7 25 7 -6 14 -18 3 -45 17 -60 31 l-29 25 36 1 c40 0 64 20 74 63 4 15 16
34 27 41 17 12 17 14 3 20 -33 12 -57 5 -83 -23z"/>
<path d="M7010 550 c-13 -9 -13 -10 1 -10 9 0 26 -22 40 -52 22 -49 27 -53 64
-58 l39 -5 -33 -27 c-18 -16 -45 -28 -59 -29 l-27 -1 25 -7 c20 -6 13 -9 -32
-13 -52 -4 -98 -27 -98 -48 0 -9 107 8 134 22 11 6 50 42 86 80 58 62 70 70
110 75 l45 6 -33 -36 c-19 -19 -30 -37 -25 -40 5 -3 15 -24 23 -46 7 -23 17
-41 22 -41 12 0 10 22 -7 69 -14 41 -14 43 10 67 25 25 55 26 80 3 12 -12 25
-11 25 1 0 5 -14 17 -32 26 -42 22 -125 15 -165 -14 -17 -12 -34 -22 -37 -22
-3 0 -20 22 -36 49 -35 57 -81 76 -120 51z"/>
<path d="M6746 519 c-24 -26 -27 -36 -20 -57 7 -20 17 -25 48 -27 34 -2 40 1
51 29 10 23 11 32 2 35 -7 2 -21 15 -33 28 l-20 24 -28 -32z"/>
<path d="M2175 520 c-10 -11 -25 -20 -34 -21 -10 0 -12 -2 -3 -6 6 -2 12 -13
12 -23 0 -23 15 -33 53 -34 52 -2 67 47 26 82 -33 27 -32 27 -54 2z"/>
<path d="M2296 505 c-23 -17 -17 -19 19 -5 19 7 35 6 62 -5 49 -21 60 -19 30
5 -30 23 -84 26 -111 5z"/>
<path d="M6565 500 c-35 -23 -13 -27 31 -6 31 16 88 11 77 -7 -4 -6 -1 -7 7
-2 10 6 9 11 -5 22 -27 19 -75 16 -110 -7z"/>
<path d="M4496 458 c-4 -29 -18 -88 -32 -131 -13 -43 -24 -96 -24 -118 0 -119
101 -147 131 -37 8 32 6 54 -12 121 -12 45 -27 110 -33 144 -6 34 -14 64 -17
68 -4 3 -9 -18 -13 -47z"/>
<path d="M6905 468 c31 -17 65 -50 60 -58 -3 -5 2 -10 10 -14 8 -3 15 -2 15 3
0 13 -78 81 -93 81 -6 0 -3 -6 8 -12z"/>
<path d="M2383 417 c-2 -51 -1 -51 13 -25 8 16 12 38 8 53 -10 40 -19 29 -21
-28z"/>
<path d="M4410 445 c-14 -15 -55 -42 -92 -61 -51 -26 -69 -40 -74 -61 -15 -60
50 -84 104 -38 35 29 96 144 90 170 -2 14 -7 12 -28 -10z"/>
<path d="M4570 454 c1 -53 72 -164 121 -190 28 -14 33 -14 55 1 24 15 30 38
18 70 -4 9 -34 30 -68 47 -33 16 -76 44 -93 61 -29 27 -33 28 -33 11z"/>
<path d="M6574 444 c-4 -14 -1 -37 5 -51 16 -36 26 -20 11 17 -10 24 -10 33 0
45 8 10 9 15 1 15 -6 0 -14 -12 -17 -26z"/>
<path d="M1999 419 l-33 -41 35 17 c39 20 53 31 27 22 -22 -8 -23 1 -1 25 9
10 14 18 10 18 -3 0 -20 -19 -38 -41z"/>
<path d="M2095 440 c-3 -5 -16 -10 -28 -10 -16 0 -18 -3 -8 -9 10 -6 10 -10 1
-16 -8 -5 -3 -16 16 -36 29 -31 58 -37 71 -16 11 17 11 70 0 85 -11 14 -43 16
-52 2z"/>
<path d="M2260 440 c-8 -5 -15 -24 -16 -42 -1 -63 35 -76 80 -29 l27 28 -31
27 c-35 29 -38 30 -60 16z"/>
<path d="M6652 424 c-32 -26 -33 -27 -15 -46 26 -29 51 -40 73 -33 16 5 20 15
20 50 0 30 -5 45 -16 49 -23 9 -26 8 -62 -20z"/>
<path d="M6833 443 c-20 -7 -17 -89 3 -97 25 -9 30 -8 64 20 24 21 28 29 19
40 -9 11 -8 14 2 14 8 1 -4 7 -26 15 -43 16 -44 16 -62 8z"/>
<path d="M2183 404 c-8 -21 13 -42 28 -27 13 13 5 43 -11 43 -6 0 -13 -7 -17
-16z"/>
<path d="M6761 406 c-14 -17 -7 -36 14 -36 22 0 29 20 13 36 -13 13 -16 13
-27 0z"/>
<path d="M2437 394 c-14 -14 -7 -35 11 -32 9 2 17 10 17 17 0 16 -18 25 -28
15z"/>
<path d="M6512 383 c5 -25 28 -28 28 -4 0 12 -6 21 -16 21 -9 0 -14 -7 -12
-17z"/>
<path d="M7007 379 c7 -7 15 -10 18 -7 3 3 -2 9 -12 12 -14 6 -15 5 -6 -5z"/>
<path d="M1740 340 c-24 -24 -26 -50 -5 -50 8 0 15 5 15 11 0 8 4 8 14 0 11
-9 20 -7 41 13 15 14 24 30 20 35 -11 18 -64 12 -85 -9z"/>
<path d="M2190 351 c-46 -8 -53 -45 -15 -81 l25 -23 25 23 c27 25 33 62 13 77
-7 5 -29 7 -48 4z"/>
<path d="M7150 344 c-11 -13 -10 -16 8 -21 12 -3 22 -12 22 -19 0 -19 9 -18
32 3 18 16 18 16 12 0 -4 -12 -1 -17 10 -17 24 0 20 36 -6 54 -29 20 -62 20
-78 0z"/>
<path d="M6726 334 c-9 -25 -8 -30 20 -64 26 -30 27 -30 46 -13 29 26 40 51
33 73 -5 16 -15 20 -50 20 -30 0 -45 -5 -49 -16z"/>
</g>
</svg>
