<?xml version="1.0" standalone="no"?>
<!DOCTYPE svg PUBLIC "-//W3C//DTD SVG 20010904//EN"
 "http://www.w3.org/TR/2001/REC-SVG-20010904/DTD/svg10.dtd">
<svg version="1.0" xmlns="http://www.w3.org/2000/svg"
 width="300.000000pt" height="260.000000pt" viewBox="0 0 300.000000 260.000000"
 preserveAspectRatio="xMidYMid meet">

<g transform="translate(0.000000,260.000000) scale(0.100000,-0.100000)"
fill="#000000" stroke="none">
<path d="M1386 2420 c-94 -103 -123 -129 -140 -125 -53 11 -468 66 -472 62 -2
-2 1 -81 7 -176 7 -94 10 -173 8 -175 -2 -3 -105 -14 -229 -26 -124 -11 -231
-23 -238 -25 -9 -3 37 -61 122 -154 75 -82 136 -154 136 -160 0 -6 -45 -79
-99 -163 -55 -84 -98 -154 -96 -157 3 -2 93 -7 202 -11 138 -4 188 -9 164 -15
-31 -7 -33 -9 -16 -22 25 -17 33 -17 38 5 3 9 5 -47 6 -126 l1 -143 -139 -172
c-77 -95 -172 -212 -212 -260 -39 -48 -69 -91 -65 -94 7 -8 -6 -17 396 277
168 122 312 225 320 228 8 3 21 14 28 24 7 10 18 16 23 13 5 -4 9 -1 9 4 0 6
5 11 11 11 16 0 0 -20 -25 -31 -19 -9 -19 -9 4 -4 14 2 43 5 65 5 31 0 37 3
25 11 -11 8 -1 9 39 5 30 -3 59 -10 64 -15 7 -7 -3 -7 -27 0 -20 6 -42 9 -48
7 -14 -5 36 -38 74 -49 27 -7 28 -7 17 9 -10 13 -8 12 9 -2 12 -11 21 -26 20
-35 -2 -9 2 -16 7 -16 20 -1 36 -17 31 -32 -3 -8 -2 -11 3 -8 12 7 42 -35 34
-48 -3 -6 -2 -7 4 -4 5 3 27 -16 48 -44 21 -27 43 -49 50 -47 6 2 63 62 125
133 114 131 181 202 165 176 -6 -11 1 -13 39 -9 25 3 46 1 46 -4 0 -11 85 -48
110 -48 10 0 69 -32 130 -71 61 -39 114 -69 116 -66 3 3 28 103 55 223 28 120
51 219 52 220 1 1 91 20 200 42 109 22 201 43 204 46 5 4 -164 171 -270 267
l-38 34 110 132 c61 73 111 137 111 143 0 5 -12 10 -27 10 -44 0 -358 22 -362
26 -1 1 -9 78 -16 169 -8 92 -16 170 -19 173 -4 3 -99 -21 -214 -53 -114 -32
-212 -58 -217 -59 -6 0 -80 72 -165 162 -85 89 -159 162 -165 161 -5 0 -64
-58 -129 -129z m658 -161 c116 33 212 58 215 56 2 -3 10 -77 17 -165 7 -88 15
-164 18 -168 3 -5 56 -12 118 -16 62 -3 146 -9 185 -13 l73 -6 -33 -40 c-17
-23 -65 -79 -104 -126 -40 -46 -73 -89 -73 -95 0 -6 68 -74 150 -151 l151
-140 -198 -38 c-109 -21 -199 -40 -201 -42 -2 -2 -24 -99 -49 -217 -25 -117
-47 -214 -48 -216 -1 -2 -89 54 -194 123 -105 69 -197 125 -204 124 -6 0 -81
-81 -165 -180 -85 -98 -157 -177 -162 -174 -5 3 -54 66 -110 139 l-101 133
-67 7 c-141 13 -74 51 -644 -372 -98 -73 -178 -130 -178 -127 0 2 83 106 185
230 l185 227 -2 161 -3 162 -192 3 c-106 1 -193 5 -193 7 0 3 43 69 96 147 81
121 94 145 85 162 -6 12 -64 79 -130 150 -67 71 -119 131 -117 134 2 2 102 12
223 23 120 11 223 21 228 23 7 3 7 58 -2 177 -7 95 -11 174 -9 176 1 1 110
-13 242 -32 l239 -34 92 98 c50 53 104 112 119 130 l28 33 160 -166 161 -166
209 59z m-150 -1170 c3 -3 -5 -5 -19 -5 -13 0 -22 3 -19 7 4 8 30 6 38 -2z"/>
<path d="M794 1833 c-20 -21 -49 -57 -66 -80 -16 -24 -37 -43 -46 -43 -21 0
-42 -19 -42 -38 0 -10 8 -12 30 -7 17 4 54 1 81 -5 44 -11 53 -10 67 3 14 15
13 17 -12 27 -15 5 -33 10 -39 10 -7 0 -18 4 -26 9 -11 7 -6 20 27 61 44 56
52 58 27 10 -15 -28 -14 -30 4 -30 14 0 26 14 41 46 11 26 20 53 20 60 0 25
-28 15 -66 -23z"/>
<path d="M1573 1849 c-32 -9 -59 -40 -46 -53 10 -10 43 -7 43 4 0 6 12 10 26
10 l25 0 -22 -31 c-12 -18 -31 -34 -41 -37 -10 -2 -18 -12 -18 -21 0 -10 -7
-26 -15 -37 -18 -24 -19 -34 0 -34 8 0 19 9 25 20 14 26 30 25 90 -5 61 -31
72 -31 68 -3 -2 16 -17 28 -57 43 l-53 22 58 11 c68 14 94 34 94 74 0 21 -6
31 -26 38 -31 12 -108 11 -151 -1z m145 -37 c19 -13 -15 -39 -65 -50 l-41 -9
20 33 c20 34 55 45 86 26z"/>
<path d="M1070 1815 c-7 -8 -18 -15 -25 -15 -7 0 -19 -7 -26 -17 -12 -13 -12
-17 -1 -21 16 -5 -34 -62 -55 -62 -15 0 -17 16 -3 25 17 10 12 55 -6 55 -36 0
-104 -52 -104 -81 0 -9 7 -22 15 -29 12 -10 18 -10 32 1 13 11 17 11 20 2 7
-20 34 -15 60 9 l23 21 0 -21 c0 -26 31 -30 50 -7 7 8 18 15 25 15 7 0 15 -7
19 -15 8 -22 50 -18 71 5 l18 20 22 -20 c27 -25 40 -25 76 1 l29 20 0 -20 c0
-13 6 -21 18 -21 20 1 68 38 59 47 -4 3 -13 1 -20 -5 -8 -7 -17 -9 -20 -6 -10
10 22 64 38 64 8 0 16 3 16 8 10 64 4 77 -21 47 -7 -8 -18 -15 -25 -15 -7 0
-18 -7 -26 -16 -10 -12 -10 -17 0 -23 9 -6 2 -17 -25 -40 -44 -35 -44 -35 -68
-18 -16 12 -16 14 -2 26 14 12 16 10 16 -8 0 -24 10 -27 28 -9 15 15 15 48 2
68 -9 13 -15 10 -38 -18 -26 -30 -90 -72 -112 -72 -21 0 -9 19 25 39 56 33 39
70 -18 40 -12 -7 -37 -27 -55 -46 -18 -18 -38 -31 -43 -28 -13 9 18 65 36 65
8 0 16 3 16 8 10 64 4 77 -21 47z m90 -59 c0 -2 -8 -10 -17 -17 -16 -13 -17
-12 -4 4 13 16 21 21 21 13z m-240 -31 c-24 -26 -40 -32 -40 -15 0 8 45 38 59
40 3 0 -6 -11 -19 -25z"/>
<path d="M2027 1813 c-4 -3 -7 -12 -7 -20 0 -17 26 -17 33 1 8 21 -11 35 -26
19z"/>
<path d="M2357 1745 c-44 -52 -60 -58 -44 -15 6 16 8 32 4 36 -9 9 -47 -25
-47 -42 0 -7 -4 -15 -10 -19 -5 -3 -5 7 2 25 16 46 0 50 -34 8 -16 -21 -35
-38 -41 -38 -6 0 2 13 18 30 27 29 28 55 1 35 -7 -6 -32 -25 -56 -42 -42 -32
-70 -42 -70 -24 0 5 16 18 35 30 37 21 47 51 18 51 -23 0 -83 -36 -83 -50 0
-5 -11 -17 -26 -26 -36 -24 -51 -4 -19 26 30 28 32 40 6 40 -11 0 -32 -16 -47
-35 -30 -40 -41 -41 -23 -1 7 14 9 29 6 33 -8 8 -47 -26 -47 -41 0 -6 -9 -17
-20 -24 -11 -7 -20 -8 -20 -4 0 5 9 17 20 27 11 10 20 24 20 32 0 21 -27 15
-47 -10 -22 -28 -63 -57 -80 -57 -24 0 -13 18 22 39 37 21 47 51 18 51 -27 0
-80 -36 -88 -59 -16 -51 43 -82 80 -41 17 19 18 19 35 -3 18 -21 19 -22 48 -4
37 21 68 22 76 2 7 -20 35 -19 59 2 18 17 19 17 28 0 13 -23 52 -22 74 3 17
19 18 19 36 -3 15 -19 21 -20 38 -9 13 7 21 8 21 2 0 -12 32 -13 46 -1 19 18
61 21 74 6 7 -8 20 -15 29 -15 21 0 82 49 61 50 -9 0 -21 -5 -27 -11 -8 -8
-17 -8 -33 1 -18 10 -19 14 -8 27 12 15 13 14 16 -6 4 -24 20 -24 35 1 11 16
2 68 -11 68 -4 0 -25 -20 -45 -45z m-557 11 c0 -2 -8 -10 -17 -17 -16 -13 -17
-12 -4 4 13 16 21 21 21 13z m320 0 c0 -2 -8 -10 -17 -17 -16 -13 -17 -12 -4
4 13 16 21 21 21 13z"/>
</g>
</svg>
